<?xml version="1.0" standalone="no"?><!DOCTYPE svg PUBLIC "-//W3C//DTD SVG 1.1//EN" "http://www.w3.org/Graphics/SVG/1.1/DTD/svg11.dtd"><svg t="1667616708206" class="icon" viewBox="0 0 1024 1024" version="1.1" xmlns="http://www.w3.org/2000/svg" p-id="13773" xmlns:xlink="http://www.w3.org/1999/xlink" width="16" height="16"><path d="M512.65013765 984.64435856c-256.90127577 0-465.89300251-209.04173162-465.89300251-465.89300221 0-256.95130047 209.04173162-465.94300667 465.89300251-465.94302789 256.95130047 0 465.89300251 209.04173162 465.89300267 465.94302789 0.05000433 256.85127109-208.94170214 465.89300251-465.89300267 465.89300221z m0-903.58037562c-241.29817898 0-437.63736883 196.28918578-437.63736892 437.63734865 0 241.2481539 196.33919014 437.58736467 437.63736892 437.58736418s437.63736883-196.33919014 437.63734825-437.58736418c0-241.34818298-196.33919014-437.63736883-437.63734825-437.63734865z" p-id="13774" data-spm-anchor-id="a313x.7781069.0.i5" class="selected" fill="#c85cf3"></path><path d="M300.80783866 510.9497873v48.85975277l188.43761245-196.03912357v364.77281725h34.90698215v-364.77281725l188.33758317 196.03912357v-48.85975277l-205.84108888-214.09273764z" p-id="13775" data-spm-anchor-id="a313x.7781069.0.i2" class="selected" fill="#c85cf3"></path></svg>