<?xml version="1.0" standalone="no"?><!DOCTYPE svg PUBLIC "-//W3C//DTD SVG 1.1//EN" "http://www.w3.org/Graphics/SVG/1.1/DTD/svg11.dtd"><svg t="1667616895736" class="icon" viewBox="0 0 1024 1024" version="1.1" xmlns="http://www.w3.org/2000/svg" p-id="16598" data-spm-anchor-id="a313x.7781069.0.i23" xmlns:xlink="http://www.w3.org/1999/xlink" width="16" height="16"><path d="M512 983.466667C251.733333 983.466667 40.533333 772.266667 40.533333 512S251.733333 40.533333 512 40.533333 983.466667 251.733333 983.466667 512C981.333333 772.266667 772.266667 981.333333 512 983.466667z m0-878.933334C288 104.533333 104.533333 288 104.533333 512S288 919.466667 512 919.466667 919.466667 736 919.466667 512C917.333333 288 736 106.666667 512 104.533333z" p-id="16599" data-spm-anchor-id="a313x.7781069.0.i18" class="selected" fill="#c85cf3"></path><path d="M512 733.866667c-17.066667 0-32-14.933333-32-32v-362.666667c0-17.066667 14.933333-32 32-32s32 14.933333 32 32v362.666667c0 19.2-14.933333 32-32 32z" p-id="16600" data-spm-anchor-id="a313x.7781069.0.i21" class="selected" fill="#c85cf3"></path><path d="M637.866667 469.333333c-8.533333 0-17.066667-4.266667-23.466667-8.533333L512 358.4l-102.4 102.4c-12.8 12.8-32 12.8-44.8 0-12.8-12.8-12.8-32 0-44.8l110.933333-110.933333c21.333333-21.333333 53.333333-21.333333 74.666667 0l108.8 110.933333c12.8 12.8 12.8 32 0 44.8-4.266667 6.4-12.8 8.533333-21.333333 8.533333z" p-id="16601" data-spm-anchor-id="a313x.7781069.0.i17" class="" fill="#c85cf3"></path></svg>